<?xml version="1.0" encoding="UTF-8"?>
<svg id="a" xmlns="http://www.w3.org/2000/svg" viewBox="0 0 69.9 69.9">
  <defs>
    <style>
      .b {
        fill: #1a161a;
      }

      .c {
        fill: #fff;
      }
    </style>
  </defs>
  <circle class="c" cx="35" cy="34.9" r="34.43"/>
  <path class="b" d="M35,69.9C15.7,69.9,0,54.2,0,34.9c0-8.5,3.1-16.3,8.1-22.4l-1.7-.5.9-3.3,3.4,1C17,3.7,25.5,0,34.9,0c19.3,0,35,15.7,35,35,.1,19.2-15.6,34.9-34.9,34.9M11.8,13.5c-5.2,5.6-8.4,13.1-8.4,21.4,0,17.4,14.1,31.5,31.5,31.5s31.5-14.1,31.5-31.5S52.3,3.4,34.9,3.4c-7.7,0-14.8,2.8-20.2,7.4l3.9,1.1c.4-.2.9-.4,1.3-.5,3.4-.9,6.9.6,9.1,3.4l5,1.4-.9,3.3-2.1-.6c.5,2.3.2,4.6-.8,6.7-1.1,2.2-3,3.8-5.3,4.4-4.6,1.2-9.5-1.9-10.9-7.1-.8-3.1-.2-6.1,1.4-8.4,0,0-3.6-1-3.6-1ZM17.4,22c.9,3.3,3.9,5.4,6.6,4.6,1.3-.3,2.4-1.3,3-2.6.7-1.4.8-3.1.4-4.7-.1-.5-.4-1.1-.6-1.6l-7.7-2.2c-1.6,1.4-2.3,4-1.7,6.5h0ZM35,63c-15.5,0-28.1-12.6-28.1-28.1v-1.7h56.1v1.7c.1,15.5-12.5,28.1-28,28.1h0ZM32.4,59.4c1.73.2,3.47.2,5.2,0v-22.8h-5.2v22.8ZM41.1,36.6v22.1c1.8-.5,3.6-1.1,5.2-2v-20.1h-5.2ZM23.7,56.7c1.7.9,3.4,1.5,5.2,2v-22.1h-5.2v20.1ZM15,49.2c1.5,2,3.2,3.8,5.2,5.3v-17.9h-5.2s0,12.6,0,12.6ZM49.8,36.6v17.9c2-1.5,3.7-3.3,5.2-5.3v-12.6h-5.2ZM10.5,36.6c.1,2,.5,3.9,1.1,5.7v-5.7h-1.1ZM58.4,36.6v5.7c.6-1.9,1-3.8,1.1-5.7h-1.1ZM60.7,25.3h-19.6v-.6h-.2l-.2-.9-.9.6-2.1-2.8,11-8.1,2.1,2.8-5.3,3.9,11.4-2.4.7,3.4-2.9.6h6.1v3.5h-.1,0ZM24.9,24.2h-3.5v-4h3.5v4Z"/>
</svg>